<svg width="138" height="29" viewBox="0 0 138 29" fill="none" xmlns="http://www.w3.org/2000/svg">
<path d="M50.9392 20.7098C50.9392 20.6335 50.9773 20.5954 51.0536 20.5954H51.6368C51.7131 20.5954 51.7512 20.6335 51.7512 20.7098V28.4866C51.7512 28.5629 51.7131 28.601 51.6368 28.601H51.0536C50.9773 28.601 50.9392 28.5629 50.9392 28.4866V24.9985C50.9392 24.968 50.9239 24.9527 50.8934 24.9527H48.8577C48.8272 24.9527 48.812 24.968 48.812 24.9985V28.4866C48.812 28.5629 48.7739 28.601 48.6976 28.601H48.1144C48.0381 28.601 48 28.5629 48 28.4866V20.7098C48 20.6335 48.0381 20.5954 48.1144 20.5954H48.6976C48.7739 20.5954 48.812 20.6335 48.812 20.7098V24.1865C48.812 24.217 48.8272 24.2322 48.8577 24.2322H50.8934C50.9239 24.2322 50.9392 24.217 50.9392 24.1865V20.7098Z" fill="white"/>
<path d="M59.2842 28.6925C58.6971 28.6925 58.2206 28.5095 57.8546 28.1435C57.4963 27.7775 57.3171 27.2934 57.3171 26.6911V22.5053C57.3171 21.903 57.4963 21.4188 57.8546 21.0529C58.2206 20.6869 58.6971 20.5039 59.2842 20.5039C59.8789 20.5039 60.3592 20.6869 60.7252 21.0529C61.0912 21.4188 61.2742 21.903 61.2742 22.5053V26.6911C61.2742 27.2858 61.0912 27.7699 60.7252 28.1435C60.3592 28.5095 59.8789 28.6925 59.2842 28.6925ZM59.2842 27.9834C59.6349 27.9834 59.917 27.869 60.1305 27.6403C60.3516 27.404 60.4622 27.1028 60.4622 26.7368V22.471C60.4622 22.0974 60.3516 21.7962 60.1305 21.5675C59.917 21.3311 59.6349 21.213 59.2842 21.213C58.9411 21.213 58.6628 21.3311 58.4493 21.5675C58.2359 21.7962 58.1291 22.0974 58.1291 22.471V26.7368C58.1291 27.1028 58.2359 27.404 58.4493 27.6403C58.6628 27.869 58.9411 27.9834 59.2842 27.9834Z" fill="white"/>
<path d="M70.3554 20.5954C70.4316 20.5954 70.4698 20.6335 70.4698 20.7098V21.1901C70.4698 21.2663 70.4316 21.3045 70.3554 21.3045H68.8458C68.8153 21.3045 68.8 21.3197 68.8 21.3502V28.4866C68.8 28.5629 68.7619 28.601 68.6857 28.601H68.1024C68.0262 28.601 67.988 28.5629 67.988 28.4866V21.3502C67.988 21.3197 67.9728 21.3045 67.9423 21.3045H66.5242C66.4479 21.3045 66.4098 21.2663 66.4098 21.1901V20.7098C66.4098 20.6335 66.4479 20.5954 66.5242 20.5954H70.3554Z" fill="white"/>
<path d="M79.4229 21.1901C79.4229 21.2663 79.3848 21.3045 79.3085 21.3045H76.6552C76.6247 21.3045 76.6095 21.3197 76.6095 21.3502V24.1865C76.6095 24.217 76.6247 24.2322 76.6552 24.2322H78.325C78.4012 24.2322 78.4393 24.2703 78.4393 24.3466V24.8384C78.4393 24.9146 78.4012 24.9527 78.325 24.9527H76.6552C76.6247 24.9527 76.6095 24.968 76.6095 24.9985V27.8462C76.6095 27.8767 76.6247 27.8919 76.6552 27.8919H79.3085C79.3848 27.8919 79.4229 27.93 79.4229 28.0063V28.4866C79.4229 28.5629 79.3848 28.601 79.3085 28.601H75.9119C75.8356 28.601 75.7975 28.5629 75.7975 28.4866V20.7098C75.7975 20.6335 75.8356 20.5954 75.9119 20.5954H79.3085C79.3848 20.5954 79.4229 20.6335 79.4229 20.7098V21.1901Z" fill="white"/>
<path d="M84.932 28.601C84.8557 28.601 84.8176 28.5629 84.8176 28.4866V20.7098C84.8176 20.6335 84.8557 20.5954 84.932 20.5954H85.5153C85.5915 20.5954 85.6296 20.6335 85.6296 20.7098V27.8462C85.6296 27.8767 85.6449 27.8919 85.6754 27.8919H88.2943C88.3706 27.8919 88.4087 27.93 88.4087 28.0063V28.4866C88.4087 28.5629 88.3706 28.601 88.2943 28.601H84.932Z" fill="white"/>
<path d="M104.679 28.4637C104.694 28.479 104.702 28.5019 104.702 28.5324C104.702 28.5476 104.694 28.5629 104.679 28.5781C104.664 28.5934 104.641 28.601 104.611 28.601H103.993C103.932 28.601 103.886 28.5781 103.856 28.5324L103.387 27.8462C103.379 27.8309 103.368 27.8233 103.353 27.8233C103.337 27.8233 103.326 27.8271 103.318 27.8347C103.036 28.1397 102.743 28.3608 102.438 28.498C102.14 28.6353 101.805 28.7039 101.431 28.7039C100.844 28.7039 100.379 28.54 100.036 28.2121C99.6929 27.8843 99.5214 27.4192 99.5214 26.8169C99.5214 26.306 99.6433 25.8638 99.8873 25.4902C100.131 25.109 100.467 24.7392 100.894 24.3809C100.917 24.3733 100.92 24.3542 100.905 24.3237C100.631 23.912 100.429 23.5956 100.299 23.3745C100.169 23.1457 100.082 22.9551 100.036 22.8027C99.9979 22.6425 99.9788 22.4634 99.9788 22.2651C99.9788 21.7314 100.131 21.3045 100.436 20.9842C100.741 20.664 101.142 20.5039 101.637 20.5039C102.133 20.5039 102.537 20.6678 102.849 20.9957C103.17 21.3159 103.33 21.7352 103.33 22.2537C103.33 22.7188 103.212 23.1191 102.975 23.4545C102.739 23.7824 102.4 24.1331 101.957 24.5067C101.934 24.5143 101.931 24.5334 101.946 24.5639C102.251 24.9908 102.476 25.3149 102.621 25.536L103.33 26.5424C103.337 26.55 103.349 26.5538 103.364 26.5538C103.379 26.5538 103.391 26.55 103.398 26.5424C103.505 26.3823 103.688 26.0735 103.947 25.616C103.963 25.5855 103.985 25.5665 104.016 25.5589C104.046 25.5512 104.077 25.555 104.107 25.5703L104.542 25.8219C104.603 25.86 104.614 25.9134 104.576 25.982C104.332 26.4318 104.085 26.8321 103.833 27.1828C103.825 27.2057 103.825 27.2286 103.833 27.2515L104.679 28.4637ZM101.66 21.2473C101.401 21.2473 101.191 21.3426 101.031 21.5332C100.871 21.7162 100.791 21.9678 100.791 22.288C100.791 22.5015 100.829 22.7035 100.905 22.8941C100.989 23.0848 101.176 23.4012 101.466 23.8434C101.481 23.8739 101.5 23.8777 101.523 23.8548C101.843 23.5803 102.087 23.3211 102.255 23.0771C102.43 22.8331 102.518 22.5587 102.518 22.2537C102.518 21.9487 102.438 21.7047 102.278 21.5218C102.117 21.3388 101.912 21.2473 101.66 21.2473ZM101.511 27.9948C101.763 27.9948 101.999 27.9338 102.22 27.8119C102.441 27.6822 102.666 27.4878 102.895 27.2286C102.91 27.2057 102.91 27.1828 102.895 27.16L102.346 26.3709L101.397 25.0328C101.382 25.0099 101.363 25.0099 101.34 25.0328C101.012 25.3149 100.76 25.5932 100.585 25.8676C100.417 26.1421 100.333 26.4509 100.333 26.794C100.333 27.1523 100.436 27.4421 100.642 27.6632C100.848 27.8843 101.138 27.9948 101.511 27.9948Z" fill="white"/>
<path d="M118.154 28.6925C117.589 28.6925 117.132 28.5057 116.781 28.1321C116.431 27.7585 116.255 27.2705 116.255 26.6682V26.4052C116.255 26.3289 116.293 26.2908 116.37 26.2908H116.93C117.006 26.2908 117.044 26.3289 117.044 26.4052V26.6339C117.044 27.038 117.147 27.3658 117.353 27.6174C117.559 27.8614 117.826 27.9834 118.154 27.9834C118.474 27.9834 118.741 27.8652 118.954 27.6289C119.168 27.3925 119.274 27.0799 119.274 26.6911C119.274 26.4318 119.221 26.2107 119.114 26.0278C119.015 25.8371 118.882 25.6732 118.714 25.536C118.554 25.3911 118.283 25.1738 117.902 24.8841C117.521 24.602 117.22 24.3618 116.999 24.1636C116.777 23.9577 116.594 23.7138 116.45 23.4317C116.312 23.1496 116.244 22.8179 116.244 22.4367C116.244 21.842 116.415 21.3731 116.758 21.03C117.101 20.6793 117.547 20.5039 118.096 20.5039C118.676 20.5039 119.137 20.6945 119.48 21.0757C119.831 21.4493 120.006 21.9487 120.006 22.5739V22.8598C120.006 22.9361 119.968 22.9742 119.892 22.9742H119.32C119.244 22.9742 119.206 22.9361 119.206 22.8598V22.5625C119.206 22.1584 119.103 21.8344 118.897 21.5904C118.699 21.3388 118.432 21.213 118.096 21.213C117.791 21.213 117.54 21.3235 117.342 21.5446C117.143 21.7581 117.044 22.0631 117.044 22.4596C117.044 22.6959 117.086 22.9056 117.17 23.0886C117.262 23.2639 117.395 23.4317 117.57 23.5918C117.746 23.7519 118.005 23.9616 118.348 24.2208C118.806 24.5563 119.145 24.8307 119.366 25.0442C119.595 25.2501 119.77 25.4788 119.892 25.7304C120.014 25.9744 120.075 26.2717 120.075 26.6225C120.075 27.2477 119.896 27.7509 119.537 28.1321C119.179 28.5057 118.718 28.6925 118.154 28.6925Z" fill="white"/>
<path d="M127.385 20.584C127.942 20.584 128.391 20.7898 128.734 21.2015C129.078 21.6056 129.249 22.1393 129.249 22.8027C129.249 23.4583 129.081 23.9882 128.746 24.3923C128.41 24.7888 127.968 24.987 127.419 24.987H126.241C126.211 24.987 126.196 25.0023 126.196 25.0328V28.4866C126.196 28.5629 126.157 28.601 126.081 28.601H125.498C125.422 28.601 125.384 28.5629 125.384 28.4866V20.6983C125.384 20.6221 125.422 20.584 125.498 20.584H127.385ZM127.282 24.3237C127.625 24.3237 127.903 24.1865 128.117 23.912C128.33 23.6375 128.437 23.2715 128.437 22.8141C128.437 22.3566 128.33 21.9907 128.117 21.7162C127.903 21.4341 127.625 21.293 127.282 21.293H126.241C126.211 21.293 126.196 21.3083 126.196 21.3388V24.278C126.196 24.3085 126.211 24.3237 126.241 24.3237H127.282Z" fill="white"/>
<path d="M137.289 28.601C137.221 28.601 137.179 28.5667 137.163 28.498L136.877 27.0799C136.877 27.0647 136.87 27.0532 136.855 27.0456C136.847 27.038 136.836 27.0342 136.82 27.0342H134.75C134.735 27.0342 134.72 27.038 134.705 27.0456C134.697 27.0532 134.693 27.0647 134.693 27.0799L134.407 28.498C134.4 28.5667 134.358 28.601 134.281 28.601H133.698C133.66 28.601 133.63 28.5895 133.607 28.5667C133.591 28.5438 133.588 28.5133 133.595 28.4752L135.311 20.6983C135.326 20.6297 135.368 20.5954 135.436 20.5954H136.123C136.199 20.5954 136.241 20.6297 136.248 20.6983L137.987 28.4752V28.498C137.987 28.5667 137.953 28.601 137.884 28.601H137.289ZM134.842 26.3251C134.842 26.3556 134.853 26.3709 134.876 26.3709H136.683C136.706 26.3709 136.717 26.3556 136.717 26.3251L135.802 21.8305C135.795 21.8077 135.787 21.7962 135.78 21.7962C135.772 21.7962 135.764 21.8077 135.757 21.8305L134.842 26.3251Z" fill="white"/>
<path d="M59.0448 15.6142C59.6289 15.6142 60.0362 15.5688 60.2668 15.478C60.5128 15.3872 60.6357 15.1527 60.6357 14.7745C60.6357 14.3962 60.2284 13.1102 59.4137 10.9163H52.381C51.72 12.8378 51.3895 14.0482 51.3895 14.5475C51.3895 15.0317 51.5125 15.3343 51.7584 15.4553C52.0198 15.5612 52.4809 15.6142 53.1419 15.6142L53.188 15.8865H48L48.0461 15.6142C48.4919 15.6142 48.8378 15.5764 49.0837 15.5007C49.345 15.4251 49.6217 15.2284 49.9138 14.9106C50.2212 14.5778 50.5133 14.1012 50.79 13.4809C51.0667 12.8605 51.3972 11.9905 51.7815 10.8709L53.8337 5.0383C54.5561 2.98062 54.9174 1.73239 54.9174 1.29362C54.9174 0.854847 54.8098 0.574941 54.5946 0.453902C54.3794 0.317731 53.9643 0.249646 53.3494 0.249646L53.3033 0H57.1079L61.1891 10.8709C61.8809 12.6714 62.342 13.8137 62.5726 14.2979C62.8186 14.782 63.0491 15.0922 63.2644 15.2284C63.6487 15.4856 64.1329 15.6142 64.717 15.6142L64.7631 15.8865H58.9986L59.0448 15.6142ZM55.8166 1.22553L52.5655 10.3716H59.2292L55.8166 1.22553Z" fill="#AA8453"/>
<path d="M72.9781 0C75.622 0 77.605 0.226951 78.927 0.680852C79.5265 0.892672 80.1644 1.19527 80.8408 1.58865C81.5172 1.98203 82.0629 2.45106 82.4779 2.99574C82.9083 3.54043 83.2619 4.23641 83.5386 5.08369C83.8307 5.93097 83.9767 6.88416 83.9767 7.94326C83.9767 8.98724 83.8307 9.93286 83.5386 10.7801C83.2619 11.6123 82.9083 12.3007 82.4779 12.8454C82.0629 13.3901 81.5402 13.8667 80.91 14.2752C80.2951 14.6686 79.711 14.9636 79.1576 15.1603C78.6042 15.357 77.9893 15.5158 77.3129 15.6369C76.406 15.8033 75.476 15.8865 74.5229 15.8865H68.3203L68.3665 15.6142C69.1351 15.6142 69.6961 15.4704 70.0497 15.183C70.434 14.8652 70.6261 13.3901 70.6261 10.7574V5.12908C70.6261 3.51017 70.5723 2.40567 70.4647 1.8156C70.3725 1.2104 70.2342 0.832152 70.0497 0.680852C69.6961 0.393381 69.1351 0.249646 68.3665 0.249646L68.3203 0H72.9781ZM73.0933 15.3418C73.2778 15.357 73.6544 15.3645 74.2232 15.3645C74.8073 15.3645 75.4376 15.304 76.1139 15.183C76.8057 15.0619 77.5128 14.835 78.2353 14.5021C78.9731 14.1541 79.6034 13.7154 80.126 13.1858C80.664 12.6563 81.1021 11.9452 81.4403 11.0525C81.7939 10.1447 81.9706 9.11584 81.9706 7.96596C81.9706 6.80095 81.8016 5.7721 81.4634 4.87943C81.1252 3.98676 80.6871 3.27565 80.1491 2.7461C79.6111 2.20142 78.9808 1.75508 78.2583 1.40709C76.9824 0.817022 75.5759 0.521986 74.0387 0.521986C73.347 0.521986 72.7475 0.567376 72.2402 0.658157V11.0298C72.2402 12.6638 72.2863 13.7456 72.3785 14.2752C72.4708 14.8047 72.709 15.1603 73.0933 15.3418Z" fill="#AA8453"/>
<path d="M93.077 5.12908V10.7574C93.077 12.3764 93.1231 13.4809 93.2154 14.0709C93.323 14.661 93.469 15.0317 93.6535 15.183C94.007 15.4704 94.5681 15.6142 95.3367 15.6142L95.3828 15.8865H89.1572L89.2033 15.6142C89.5876 15.6142 89.8873 15.5991 90.1025 15.5688C90.3177 15.5385 90.5176 15.4553 90.702 15.3191C90.9019 15.183 91.0402 15.0317 91.1171 14.8652C91.2093 14.6837 91.2862 14.3887 91.3477 13.9801C91.4245 13.4506 91.463 12.3764 91.463 10.7574V5.12908C91.463 3.55556 91.4168 2.45863 91.3246 1.8383C91.2324 1.21797 91.094 0.832152 90.9096 0.680852C90.5406 0.393381 89.9719 0.249646 89.2033 0.249646L89.1572 0H95.3828L95.3367 0.249646C94.5681 0.249646 94.007 0.393381 93.6535 0.680852C93.2692 0.998582 93.077 2.48132 93.077 5.12908Z" fill="#AA8453"/>
<path d="M115.377 5.10638V16H114.662L103.802 2.49645V10.7121C103.802 12.2251 103.871 13.3144 104.009 13.9801C104.148 14.6459 104.378 15.0846 104.701 15.2965C105.024 15.5083 105.554 15.6142 106.292 15.6142L106.338 15.8865H100.666L100.712 15.6142C101.45 15.6142 101.98 15.5083 102.303 15.2965C102.626 15.0846 102.856 14.6459 102.995 13.9801C103.148 13.3144 103.225 12.2251 103.225 10.7121V5.10638C103.225 3.59338 103.148 2.51158 102.995 1.86099C102.856 1.19527 102.626 0.764066 102.303 0.567377C101.995 0.355556 101.465 0.249646 100.712 0.249646L100.666 0H103.802L114.8 13.5035V5.10638C114.8 3.60851 114.723 2.52671 114.57 1.86099C114.431 1.19527 114.201 0.764066 113.878 0.567377C113.555 0.355556 113.017 0.249646 112.264 0.249646L112.218 0H117.936L117.89 0.249646C117.137 0.249646 116.599 0.355556 116.276 0.567377C115.953 0.764066 115.723 1.19527 115.584 1.86099C115.446 2.52671 115.377 3.60851 115.377 5.10638Z" fill="#AA8453"/>
<path d="M132.282 15.6142C132.866 15.6142 133.273 15.5688 133.504 15.478C133.75 15.3872 133.873 15.1527 133.873 14.7745C133.873 14.3962 133.465 13.1102 132.651 10.9163H125.618C124.957 12.8378 124.626 14.0482 124.626 14.5475C124.626 15.0317 124.749 15.3343 124.995 15.4553C125.257 15.5612 125.718 15.6142 126.379 15.6142L126.425 15.8865H121.237L121.283 15.6142C121.729 15.6142 122.075 15.5764 122.321 15.5007C122.582 15.4251 122.859 15.2284 123.151 14.9106C123.458 14.5778 123.75 14.1012 124.027 13.4809C124.304 12.8605 124.634 11.9905 125.018 10.8709L127.071 5.0383C127.793 2.98062 128.154 1.73239 128.154 1.29362C128.154 0.854847 128.047 0.574941 127.831 0.453902C127.616 0.317731 127.201 0.249646 126.586 0.249646L126.54 0H130.345L134.426 10.8709C135.118 12.6714 135.579 13.8137 135.809 14.2979C136.055 14.782 136.286 15.0922 136.501 15.2284C136.886 15.4856 137.37 15.6142 137.954 15.6142L138 15.8865H132.236L132.282 15.6142ZM129.054 1.22553L125.802 10.3716H132.466L129.054 1.22553Z" fill="#AA8453"/>
<path d="M4.35209 24.9834C4.28544 24.9831 4.21948 24.9696 4.15806 24.9437C4.09664 24.9178 4.04094 24.88 3.99414 24.8326C-1.491 19.3507 0.242502 8.96867 0.320122 8.52908L0.380499 8.17568L0.734131 8.11535C1.17398 8.03777 11.5621 6.3139 17.0429 11.7872C17.1382 11.8828 17.1917 12.0122 17.1917 12.1471C17.1917 12.282 17.1382 12.4114 17.0429 12.5069C16.9473 12.6021 16.8178 12.6556 16.6829 12.6556C16.5479 12.6556 16.4184 12.6021 16.3228 12.5069C11.7604 7.95589 3.13603 8.81783 1.26884 9.06348C1.01873 10.9296 0.151973 19.5489 4.7143 24.1086C4.80957 24.2041 4.86306 24.3335 4.86306 24.4684C4.86306 24.6033 4.80957 24.7327 4.7143 24.8283C4.66783 24.8777 4.61165 24.9169 4.54933 24.9436C4.48701 24.9703 4.41989 24.9839 4.35209 24.9834Z" fill="#AA8453"/>
<path d="M16.0471 28.8227C12.4291 28.8227 7.31048 28.1461 3.99007 24.8363C3.8948 24.7407 3.84131 24.6113 3.84131 24.4764C3.84131 24.3415 3.8948 24.2121 3.99007 24.1165C4.08568 24.0213 4.2152 23.9679 4.35017 23.9679C4.48515 23.9679 4.61461 24.0213 4.71023 24.1165C9.27255 28.6676 17.897 27.8099 19.7642 27.56C20.0143 25.6939 20.8811 17.0702 16.3187 12.5149C16.2235 12.4193 16.1699 12.2899 16.1699 12.155C16.1699 12.0201 16.2235 11.8907 16.3187 11.7952C16.4144 11.6999 16.5438 11.6465 16.6788 11.6465C16.8138 11.6465 16.9432 11.6999 17.0388 11.7952C22.5197 17.2771 20.7905 27.6591 20.7129 28.0987L20.6525 28.4521L20.2989 28.5124C18.8916 28.7238 17.4702 28.8275 16.0471 28.8227Z" fill="#AA8453"/>
<path d="M36.3959 24.9837C36.2622 24.9826 36.134 24.9301 36.0379 24.8372C35.9427 24.7416 35.8892 24.6122 35.8892 24.4773C35.8892 24.3424 35.9427 24.213 36.0379 24.1175C40.5917 19.5578 39.7292 10.9384 39.4834 9.07235C37.6162 8.82239 28.9875 7.96045 24.4295 12.5158C24.3338 12.611 24.2044 12.6645 24.0694 12.6645C23.9344 12.6645 23.8049 12.611 23.7093 12.5158C23.614 12.4202 23.5605 12.2908 23.5605 12.1559C23.5605 12.021 23.614 11.8916 23.7093 11.7961C29.1944 6.32277 39.5826 8.05096 40.0225 8.12422L40.376 8.18456L40.4364 8.53795C40.514 8.97754 42.2389 19.3553 36.7624 24.8372C36.6633 24.9307 36.5322 24.9831 36.3959 24.9837Z" fill="#AA8453"/>
<path d="M24.697 28.8226C23.2723 28.8269 21.8494 28.7217 20.4409 28.508L20.0873 28.4477L20.0269 28.0943C19.9493 27.6547 18.2201 17.2727 23.7009 11.7908C23.7965 11.6956 23.926 11.6421 24.061 11.6421C24.196 11.6421 24.3254 11.6956 24.421 11.7908C24.5163 11.8863 24.5698 12.0157 24.5698 12.1506C24.5698 12.2855 24.5163 12.4149 24.421 12.5105C19.8587 17.0701 20.7255 25.6895 20.9756 27.5556C22.8428 27.8056 31.4715 28.6675 36.0295 24.1122C36.1252 24.0169 36.2546 23.9635 36.3896 23.9635C36.5246 23.9635 36.6541 24.0169 36.7497 24.1122C36.8449 24.2077 36.8984 24.3371 36.8984 24.472C36.8984 24.6069 36.8449 24.7363 36.7497 24.8319C33.4336 28.1503 28.315 28.8226 24.697 28.8226Z" fill="#AA8453"/>
<path d="M20.2208 28.6594L19.9276 28.4525C19.5611 28.194 10.9927 22.0742 10.9927 14.3297C10.9927 6.5852 19.5654 0.465446 19.9276 0.206865L20.2208 0L20.5141 0.206865C20.8806 0.465446 29.449 6.57658 29.449 14.3297C29.449 22.0742 20.8763 28.194 20.5141 28.4525L20.2208 28.6594ZM20.2208 1.25412C18.7245 2.39618 12.0104 7.88672 12.0104 14.3254C12.0104 20.7641 18.7245 26.2546 20.2208 27.3967C21.7172 26.2546 28.4313 20.7641 28.4313 14.3254C28.4313 7.88672 21.7215 2.40049 20.2208 1.25412Z" fill="#AA8453"/>
</svg>
